<svg focusable="false" role="img" viewBox="0 0 24 24">
	<title>GBA</title>
	<path d="
        M 12 19.199219 C 9.457031 19.199219 7.679688 18.960938 6.71875 18.429688 C 6.527344 18.335938 6.382812 18.289062 6.289062 18.289062 C 3.410156 18.191406 1.96875 17.183594 1.390625 16.558594 C 1.105469 16.269531 0.960938 15.9375 0.960938 15.503906 C 0.960938 13.390625 1.054688 9.503906 1.441406 8.015625 C 1.632812 7.25 2.351562 6.71875 3.167969 6.71875 C 3.984375 6.71875 5.230469 5.949219 6.050781 5.230469 C 6.429688 4.945312 6.863281 4.800781 7.296875 4.800781 L 16.75 4.800781 C 17.230469 4.800781 17.710938 4.992188 18 5.28125 C 18.625 5.855469 19.96875 6.71875 20.832031 6.71875 C 21.648438 6.71875 22.367188 7.25 22.558594 8.015625 C 22.894531 9.3125 23.039062 12.671875 23.039062 15.457031 C 23.039062 15.890625 22.894531 16.222656 22.609375 16.511719 C 21.984375 17.136719 20.589844 18.144531 17.710938 18.238281 C 17.519531 18.238281 17.375 18.289062 17.328125 18.335938 C 16.464844 18.910156 14.6875 19.199219 12 19.199219 Z 
        M 6.289062 17.328125 C 6.527344 17.328125 6.816406 17.425781 7.152344 17.570312 C 7.632812 17.808594 8.832031 18.238281 12 18.238281 C 15.359375 18.238281 16.464844 17.761719 16.75 17.570312 C 16.992188 17.375 17.328125 17.28125 17.710938 17.28125 C 20.304688 17.183594 21.550781 16.222656 21.933594 15.839844 C 22.03125 15.742188 22.078125 15.601562 22.078125 15.457031 C 22.078125 12.816406 21.9375 9.457031 21.601562 8.304688 C 21.503906 7.96875 21.167969 7.730469 20.832031 7.730469 C 19.535156 7.730469 18 6.625 17.328125 6 C 17.136719 5.808594 16.894531 5.808594 16.75 5.808594 L 7.296875 5.808594 C 7.105469 5.808594 6.863281 5.90625 6.671875 6.050781 C 6.386719 6.289062 4.65625 7.679688 3.167969 7.679688 C 2.785156 7.679688 2.496094 7.921875 2.402344 8.257812 C 2.066406 9.457031 1.921875 12.816406 1.921875 15.503906 C 1.921875 15.648438 1.96875 15.792969 2.066406 15.890625 C 2.449219 16.269531 3.695312 17.230469 6.289062 17.328125 Z 
        M 3.839844 8.640625 L 4.800781 8.640625 L 4.800781 11.519531 L 3.839844 11.519531 Z 
        M 2.878906 10.558594 L 2.878906 9.601562 L 5.761719 9.601562 L 5.761719 10.558594 Z 
        M 20.398438 8.640625 C 20.785156 8.640625 21.121094 8.976562 21.121094 9.359375 C 21.121094 9.742188 20.785156 10.078125 20.398438 10.078125 C 20.015625 10.078125 19.679688 9.742188 19.679688 9.359375 C 19.679688 8.976562 20.015625 8.640625 20.398438 8.640625 Z 
        M 18.960938 10.078125 C 19.34375 10.078125 19.679688 10.414062 19.679688 10.800781 C 19.679688 11.183594 19.34375 11.519531 18.960938 11.519531 C 18.574219 11.519531 18.238281 11.183594 18.238281 10.800781 C 18.238281 10.414062 18.574219 10.078125 18.960938 10.078125 Z 
        M 5.710938 13.871094 C 5.808594 13.632812 5.710938 13.34375 5.519531 13.25 L 4.078125 12.527344 C 3.839844 12.429688 3.550781 12.527344 3.457031 12.71875 C 3.359375 12.960938 3.457031 13.25 3.648438 13.34375 L 5.089844 14.0625 C 5.136719 14.109375 5.230469 14.109375 5.28125 14.109375 C 5.472656 14.160156 5.617188 14.066406 5.710938 13.871094 Z 
        M 5.710938 15.792969 C 5.808594 15.550781 5.710938 15.265625 5.519531 15.167969 L 4.078125 14.449219 C 3.839844 14.351562 3.550781 14.449219 3.457031 14.640625 C 3.359375 14.878906 3.457031 15.167969 3.648438 15.265625 L 5.089844 15.984375 C 5.136719 16.03125 5.230469 16.03125 5.28125 16.03125 C 5.472656 16.078125 5.617188 15.984375 5.710938 15.792969 Z 
        M 15.839844 15.839844 L 8.160156 15.839844 C 7.585938 15.839844 7.199219 15.457031 7.199219 14.878906 L 7.199219 8.640625 C 7.199219 8.0625 7.585938 7.679688 8.160156 7.679688 L 15.839844 7.679688 C 16.414062 7.679688 16.800781 8.0625 16.800781 8.640625 L 16.800781 14.878906 C 16.800781 15.457031 16.414062 15.839844 15.839844 15.839844 Z 
        M 8.160156 8.640625 L 8.160156 14.878906 L 15.839844 14.878906 L 15.839844 8.640625 Z 
        M 18.574219 13.871094 L 20.496094 12.910156 C 20.589844 12.863281 20.640625 12.71875 20.589844 12.574219 C 20.542969 12.480469 20.398438 12.429688 20.253906 12.480469 L 18.335938 13.441406 C 18.238281 13.488281 18.191406 13.632812 18.238281 13.777344 C 18.289062 13.871094 18.382812 13.921875 18.429688 13.921875 C 18.527344 13.921875 18.574219 13.921875 18.574219 13.871094 Z 
        M 18.574219 14.832031 L 20.496094 13.871094 C 20.589844 13.824219 20.640625 13.679688 20.589844 13.535156 C 20.542969 13.441406 20.398438 13.390625 20.253906 13.441406 L 18.335938 14.398438 C 18.238281 14.449219 18.191406 14.589844 18.238281 14.734375 C 18.289062 14.832031 18.382812 14.878906 18.429688 14.878906 C 18.527344 14.878906 18.574219 14.878906 18.574219 14.832031 Z 
        M 18.574219 15.792969 L 20.496094 14.832031 C 20.589844 14.785156 20.640625 14.640625 20.589844 14.496094 C 20.542969 14.398438 20.398438 14.351562 20.253906 14.398438 L 18.335938 15.359375 C 18.238281 15.410156 18.191406 15.550781 18.238281 15.695312 C 18.289062 15.792969 18.382812 15.839844 18.429688 15.839844 C 18.527344 15.839844 18.574219 15.839844 18.574219 15.792969 Z 
        M 18.574219 15.792969 
    " />
</svg>