<svg focusable="false" role="img" viewBox="0 0 24 24">
	<title>PC</title>
	<path d="M4.539062 7.515625 L 4.539062 13.886719 L 7.6875 13.886719 L 7.695312 11.738281 L 7.707031 9.597656 L 8.625 9.585938 L 9.542969 9.578125 L 10.546875 8.589844 L 11.550781 7.605469 L 11.550781 3.148438 L 10.527344 2.144531 L 9.507812 1.140625 L 4.539062 1.140625 Z" />
	<path d="M8.28125 5.410156 L 8.289062 7.113281 L 8 7.101562 L 7.707031 7.089844 L 7.695312 5.40625 L 7.6875 3.722656 L 7.9375 3.714844 C 8.082031 3.707031 8.210938 3.703125 8.230469 3.703125 C 8.253906 3.707031 8.273438 4.308594 8.28125 5.410156 Z" />
	<path d="M8.28125 5.410156" />
	<path d="M13.09375 2.148438 L 12.074219 3.148438 L 12.074219 11.917969 L 13.078125 12.902344 L 14.085938 13.886719 L 17.457031 13.886719 L 18.460938 12.898438 L 19.460938 11.917969 L 19.445312 8.417969 L 16.144531 8.417969 L 16.132812 9.878906 L 16.125 11.347656 L 15.601562 11.347656 L 15.601562 3.71875 L 16.125 3.71875 L 16.132812 4.925781 L 16.144531 6.132812 L 19.445312 6.132812 L 19.460938 3.148438 L 18.441406 2.148438 L 17.417969 1.140625 L 14.117188 1.140625 Z" />
	<path d="M13.09375 2.148438" />
</svg>