<svg focusable="false" role="img" viewBox="0 0 24 24">
	<title>PSP</title>
	<path d="M 3.238281 9.3125 L 8.371094 9.3125 L 8.371094 10.832031 L 3.441406 10.832031 L 3.441406 12.152344 L 3.238281 12.152344 L 3.238281 10.632812 L 8.167969 10.632812 L 8.167969 9.511719 L 3.238281 9.511719 L 3.238281 9.3125" />
	<path d="M 14.777344 10.832031 L 14.777344 12.152344 L 14.578125 12.152344 L 14.578125 10.632812 L 19.503906 10.632812 L 19.503906 9.511719 L 14.578125 9.511719 L 14.578125 9.3125 L 19.707031 9.3125 L 19.707031 10.832031 L 14.777344 10.832031" />
	<path d="M 10.988281 9.3125 L 10.988281 11.953125 L 8.371094 11.953125 L 8.371094 12.152344 L 11.199219 12.152344 L 11.199219 9.511719 L 13.8125 9.511719 L 13.8125 9.3125 L 10.988281 9.3125" />
</svg>