<svg focusable="false" role="img" viewBox="0 0 24 24">
    <path d="M12 19.199c-2.543 0-4.32-.238-5.281-.77-.191-.094-.336-.141-.43-.141-2.879-.098-4.32-1.105-4.898-1.73-.285-.289-.43-.621-.43-1.055 0-2.113.094-6 .48-7.488.191-.766.91-1.297 1.727-1.297s2.063-.77 2.883-1.488c.379-.285.813-.43 1.246-.43h9.453c.48 0 .961.191 1.25.48.625.574 1.969 1.438 2.832 1.438.816 0 1.535.531 1.727 1.297.336 1.297.48 4.656.48 7.441 0 .434-.145.766-.43 1.055-.625.625-2.02 1.633-4.898 1.727-.191 0-.336.051-.383.098-.863.574-2.641.863-5.328.863zm-5.711-1.871c.238 0 .527.098.863.242.48.238 1.68.668 4.848.668 3.359 0 4.465-.477 4.75-.668.242-.195.578-.289.961-.289 2.594-.098 3.84-1.059 4.223-1.441.098-.098.145-.238.145-.383 0-2.641-.141-6-.477-7.152-.098-.336-.434-.574-.77-.574C19.535 7.73 18 6.625 17.328 6c-.191-.191-.434-.191-.578-.191H7.297c-.191 0-.434.098-.625.242-.285.238-2.016 1.629-3.504 1.629-.383 0-.672.242-.766.578-.336 1.199-.48 4.559-.48 7.246 0 .145.047.289.145.387.383.379 1.629 1.34 4.223 1.438zM3.84 8.641h.961v2.879H3.84zm-.961 1.918v-.957h2.883v.957zm17.52-1.918a.74.74 0 0 1 .723.719.74.74 0 0 1-.723.719.74.74 0 0 1-.719-.719.74.74 0 0 1 .719-.719zm-1.437 1.438a.74.74 0 0 1 .719.723.74.74 0 0 1-.719.719.74.74 0 0 1-.723-.719.74.74 0 0 1 .723-.723zm-13.25 3.793c.098-.238 0-.527-.191-.621l-1.441-.723c-.238-.098-.527 0-.621.191-.098.242 0 .531.191.625l1.441.719c.047.047.141.047.191.047.191.051.336-.043.43-.238zm0 1.922c.098-.242 0-.527-.191-.625l-1.441-.719c-.238-.098-.527 0-.621.191-.098.238 0 .527.191.625l1.441.719c.047.047.141.047.191.047.191.047.336-.047.43-.238zm10.129.047H8.16c-.574 0-.961-.383-.961-.961V8.641c0-.578.387-.961.961-.961h7.68c.574 0 .961.383.961.961v6.238c0 .578-.387.961-.961.961zM8.16 8.641v6.238h7.68V8.641zm10.414 5.23l1.922-.961c.094-.047.145-.191.094-.336-.047-.094-.191-.145-.336-.094l-1.918.961c-.098.047-.145.191-.098.336.051.094.145.145.191.145.098 0 .145 0 .145-.051zm0 .961l1.922-.961c.094-.047.145-.191.094-.336-.047-.094-.191-.145-.336-.094l-1.918.957c-.098.051-.145.191-.098.336.051.098.145.145.191.145.098 0 .145 0 .145-.047zm0 .961l1.922-.961c.094-.047.145-.191.094-.336-.047-.098-.191-.145-.336-.098l-1.918.961c-.098.051-.145.191-.098.336.051.098.145.145.191.145.098 0 .145 0 .145-.047zm0 0"/>
</svg>