<svg focusable="false" role="img" viewBox="0 0 24 24">
    <path d="M4.539 7.516v6.371h3.148l.008-2.148.012-2.141.918-.012.918-.008 1.004-.988 1.004-.984V3.148l-1.023-1.004-1.02-1.004H4.539z"/>
    <path d="M8.281 5.41l.008 1.703L8 7.102l-.293-.012-.012-1.684-.008-1.684.25-.008.293-.012c.023.004.043.605.051 1.707zm4.813-3.262l-1.02 1v8.77l1.004.984 1.008.984h3.371l1.004-.988 1-.98-.016-3.5h-3.301l-.012 1.461-.008 1.469h-.523V3.719h.523l.008 1.207.012 1.207h3.301l.016-2.984-1.02-1-1.023-1.008h-3.301z"/>
</svg>